<svg width="91" height="10" viewBox="0 0 91 10" fill="none" xmlns="http://www.w3.org/2000/svg">
<path d="M4.036 0.599999H0.76V9H1.96V6.456H4.036C6.22 6.456 7.54 5.352 7.54 3.528C7.54 1.704 6.22 0.599999 4.036 0.599999ZM4 5.412H1.96V1.644H4C5.536 1.644 6.34 2.328 6.34 3.528C6.34 4.728 5.536 5.412 4 5.412ZM15.503 7.956V5.244H19.715V4.224H15.503V1.644H20.231V0.599999H14.303V9H20.399V7.956H15.503ZM34.266 9L32.274 6.18C33.45 5.76 34.122 4.824 34.122 3.528C34.122 1.704 32.802 0.599999 30.618 0.599999H27.342V9H28.542V6.444H30.618C30.798 6.444 30.978 6.432 31.146 6.42L32.958 9H34.266ZM30.582 5.424H28.542V1.644H30.582C32.118 1.644 32.922 2.328 32.922 3.528C32.922 4.728 32.118 5.424 30.582 5.424ZM46.9888 1.644V0.599999H41.0608V9H42.2608V5.604H46.4728V4.572H42.2608V1.644H46.9888ZM57.158 9.096C59.378 9.096 60.71 7.812 60.71 5.376V0.599999H59.546V5.328C59.546 7.188 58.682 8.028 57.17 8.028C55.658 8.028 54.806 7.188 54.806 5.328V0.599999H53.606V5.376C53.606 7.812 54.95 9.096 57.158 9.096ZM77.1102 9L77.0982 0.599999H76.1142L72.6582 6.504L69.1542 0.599999H68.1702V9H69.3222V2.916L72.3582 7.98H72.9102L75.9462 2.88L75.9582 9H77.1102ZM85.8311 7.956V5.244H90.0431V4.224H85.8311V1.644H90.5591V0.599999H84.6311V9H90.7271V7.956H85.8311Z" fill="#6C7289"/>
</svg>
